<mxfile host="app.diagrams.net" modified="2021-04-28T14:59:27.039Z" agent="5.0 (Windows NT 10.0; Win64; x64) AppleWebKit/537.36 (KHTML, like Gecko) Chrome/90.0.4430.93 Safari/537.36" etag="c3qxc7kjeLUwE9orW2-2" version="14.6.1" type="github">
  <diagram id="kgpKYQtTHZ0yAKxKKP6v" name="Page-1">
    <mxGraphModel dx="2130" dy="2013" grid="1" gridSize="10" guides="1" tooltips="1" connect="1" arrows="1" fold="1" page="1" pageScale="1" pageWidth="850" pageHeight="1100" math="0" shadow="0">
      <root>
        <mxCell id="0" />
        <mxCell id="1" parent="0" />
        <mxCell id="UPu-GSjByRsGBZdqt5K7-272" value="loop" style="shape=umlFrame;whiteSpace=wrap;html=1;" parent="1" vertex="1">
          <mxGeometry x="160" y="2238" width="1110" height="270" as="geometry" />
        </mxCell>
        <mxCell id="UPu-GSjByRsGBZdqt5K7-30" value="&lt;font face=&quot;helvetica&quot;&gt;alt&lt;br&gt;&lt;/font&gt;" style="shape=umlFrame;whiteSpace=wrap;html=1;" parent="1" vertex="1">
          <mxGeometry x="160" y="1280" width="1127.5" height="450" as="geometry" />
        </mxCell>
        <mxCell id="UPu-GSjByRsGBZdqt5K7-260" value="" style="ellipse;shape=cloud;whiteSpace=wrap;html=1;" parent="1" vertex="1">
          <mxGeometry x="425" y="1950" width="180" height="570" as="geometry" />
        </mxCell>
        <mxCell id="UPu-GSjByRsGBZdqt5K7-60" value="" style="ellipse;shape=cloud;whiteSpace=wrap;html=1;" parent="1" vertex="1">
          <mxGeometry x="425" y="1003" width="180" height="570" as="geometry" />
        </mxCell>
        <mxCell id="CbpCGGBYd-PtxAxwNIze-19" value="" style="ellipse;shape=cloud;whiteSpace=wrap;html=1;" parent="1" vertex="1">
          <mxGeometry x="440" y="90" width="155" height="650" as="geometry" />
        </mxCell>
        <mxCell id="3nuBFxr9cyL0pnOWT2aG-1" value=":Client" style="shape=umlLifeline;perimeter=lifelinePerimeter;container=1;collapsible=0;recursiveResize=0;rounded=0;shadow=0;strokeWidth=1;fillColor=#d5e8d4;strokeColor=#82b366;" parent="1" vertex="1">
          <mxGeometry x="120" y="130" width="100" height="590" as="geometry" />
        </mxCell>
        <mxCell id="3nuBFxr9cyL0pnOWT2aG-2" value="" style="points=[];perimeter=orthogonalPerimeter;rounded=0;shadow=0;strokeWidth=1;" parent="3nuBFxr9cyL0pnOWT2aG-1" vertex="1">
          <mxGeometry x="45" y="60" width="10" height="490" as="geometry" />
        </mxCell>
        <mxCell id="3nuBFxr9cyL0pnOWT2aG-5" value=":ClientConnector" style="shape=umlLifeline;perimeter=lifelinePerimeter;container=1;collapsible=0;recursiveResize=0;rounded=0;shadow=0;strokeWidth=1;fillColor=#d5e8d4;strokeColor=#82b366;" parent="1" vertex="1">
          <mxGeometry x="320" y="130" width="100" height="580" as="geometry" />
        </mxCell>
        <mxCell id="3nuBFxr9cyL0pnOWT2aG-6" value="" style="points=[];perimeter=orthogonalPerimeter;rounded=0;shadow=0;strokeWidth=1;" parent="3nuBFxr9cyL0pnOWT2aG-5" vertex="1">
          <mxGeometry x="45" y="80" width="10" height="460" as="geometry" />
        </mxCell>
        <mxCell id="3nuBFxr9cyL0pnOWT2aG-7" value="" style="verticalAlign=bottom;endArrow=open;dashed=1;endSize=8;shadow=0;strokeWidth=1;entryX=1.11;entryY=0.07;entryDx=0;entryDy=0;entryPerimeter=0;" parent="1" source="CbpCGGBYd-PtxAxwNIze-8" target="3nuBFxr9cyL0pnOWT2aG-6" edge="1">
          <mxGeometry relative="1" as="geometry">
            <mxPoint x="275" y="286" as="targetPoint" />
          </mxGeometry>
        </mxCell>
        <mxCell id="3nuBFxr9cyL0pnOWT2aG-8" value="startConnection()" style="verticalAlign=bottom;endArrow=block;entryX=0;entryY=0;shadow=0;strokeWidth=1;" parent="1" source="3nuBFxr9cyL0pnOWT2aG-2" target="3nuBFxr9cyL0pnOWT2aG-6" edge="1">
          <mxGeometry relative="1" as="geometry">
            <mxPoint x="275" y="210" as="sourcePoint" />
          </mxGeometry>
        </mxCell>
        <mxCell id="CbpCGGBYd-PtxAxwNIze-3" value=":Server" style="shape=umlLifeline;perimeter=lifelinePerimeter;container=1;collapsible=0;recursiveResize=0;rounded=0;shadow=0;strokeWidth=1;" parent="1" vertex="1">
          <mxGeometry x="610" y="130" width="100" height="570" as="geometry" />
        </mxCell>
        <mxCell id="CbpCGGBYd-PtxAxwNIze-4" value="" style="points=[];perimeter=orthogonalPerimeter;rounded=0;shadow=0;strokeWidth=1;" parent="CbpCGGBYd-PtxAxwNIze-3" vertex="1">
          <mxGeometry x="45" y="40" width="10" height="500" as="geometry" />
        </mxCell>
        <mxCell id="CbpCGGBYd-PtxAxwNIze-7" value=":PlayerConnectionHandler" style="shape=umlLifeline;perimeter=lifelinePerimeter;container=1;collapsible=0;recursiveResize=0;rounded=0;shadow=0;strokeWidth=1;" parent="1" vertex="1">
          <mxGeometry x="790" y="130" width="150" height="570" as="geometry" />
        </mxCell>
        <mxCell id="CbpCGGBYd-PtxAxwNIze-8" value="" style="points=[];perimeter=orthogonalPerimeter;rounded=0;shadow=0;strokeWidth=1;" parent="CbpCGGBYd-PtxAxwNIze-7" vertex="1">
          <mxGeometry x="70" y="100" width="10" height="270" as="geometry" />
        </mxCell>
        <mxCell id="y8Ypokq91T0ESG7gPPG8-27" value="" style="points=[];perimeter=orthogonalPerimeter;rounded=0;shadow=0;strokeWidth=1;" parent="CbpCGGBYd-PtxAxwNIze-7" vertex="1">
          <mxGeometry x="70" y="420" width="10" height="100" as="geometry" />
        </mxCell>
        <mxCell id="CbpCGGBYd-PtxAxwNIze-11" value=":GamesRegistry" style="shape=umlLifeline;perimeter=lifelinePerimeter;container=1;collapsible=0;recursiveResize=0;rounded=0;shadow=0;strokeWidth=1;" parent="1" vertex="1">
          <mxGeometry x="1010" y="130" width="100" height="580" as="geometry" />
        </mxCell>
        <mxCell id="CbpCGGBYd-PtxAxwNIze-12" value="" style="points=[];perimeter=orthogonalPerimeter;rounded=0;shadow=0;strokeWidth=1;" parent="CbpCGGBYd-PtxAxwNIze-11" vertex="1">
          <mxGeometry x="45" y="40" width="10" height="520" as="geometry" />
        </mxCell>
        <mxCell id="CbpCGGBYd-PtxAxwNIze-15" value=":VirtualView" style="shape=umlLifeline;perimeter=lifelinePerimeter;container=1;collapsible=0;recursiveResize=0;rounded=0;shadow=0;strokeWidth=1;fillColor=#dae8fc;strokeColor=#6c8ebf;" parent="1" vertex="1">
          <mxGeometry x="1210" y="130" width="100" height="570" as="geometry" />
        </mxCell>
        <mxCell id="CbpCGGBYd-PtxAxwNIze-16" value="" style="points=[];perimeter=orthogonalPerimeter;rounded=0;shadow=0;strokeWidth=1;" parent="CbpCGGBYd-PtxAxwNIze-15" vertex="1">
          <mxGeometry x="45" y="220" width="10" height="30" as="geometry" />
        </mxCell>
        <mxCell id="CbpCGGBYd-PtxAxwNIze-18" value="run()" style="verticalAlign=bottom;endArrow=block;shadow=0;strokeWidth=1;exitX=0.88;exitY=0.129;exitDx=0;exitDy=0;exitPerimeter=0;" parent="1" source="CbpCGGBYd-PtxAxwNIze-4" target="CbpCGGBYd-PtxAxwNIze-8" edge="1">
          <mxGeometry relative="1" as="geometry">
            <mxPoint x="680" y="227" as="sourcePoint" />
            <mxPoint x="860.1399999999999" y="227.20000000000005" as="targetPoint" />
          </mxGeometry>
        </mxCell>
        <mxCell id="CbpCGGBYd-PtxAxwNIze-17" value="connect()" style="verticalAlign=bottom;endArrow=block;shadow=0;strokeWidth=1;exitX=0.956;exitY=0.022;exitDx=0;exitDy=0;exitPerimeter=0;" parent="1" source="3nuBFxr9cyL0pnOWT2aG-6" target="CbpCGGBYd-PtxAxwNIze-4" edge="1">
          <mxGeometry relative="1" as="geometry">
            <mxPoint x="380" y="220" as="sourcePoint" />
            <mxPoint x="560" y="220" as="targetPoint" />
          </mxGeometry>
        </mxCell>
        <mxCell id="CbpCGGBYd-PtxAxwNIze-20" value="sendCommand(loginPlayer)" style="verticalAlign=bottom;endArrow=block;shadow=0;strokeWidth=1;entryX=-0.12;entryY=0.236;entryDx=0;entryDy=0;entryPerimeter=0;" parent="1" edge="1">
          <mxGeometry relative="1" as="geometry">
            <mxPoint x="175" y="283.56000000000006" as="sourcePoint" />
            <mxPoint x="363.79999999999995" y="283.56000000000006" as="targetPoint" />
          </mxGeometry>
        </mxCell>
        <mxCell id="CbpCGGBYd-PtxAxwNIze-21" value="sendCommand(loginPlayer)" style="verticalAlign=bottom;endArrow=block;shadow=0;strokeWidth=1;entryX=0.033;entryY=0.247;entryDx=0;entryDy=0;entryPerimeter=0;" parent="1" edge="1">
          <mxGeometry relative="1" as="geometry">
            <mxPoint x="374.9999999999998" y="291.69000000000005" as="sourcePoint" />
            <mxPoint x="860.3299999999999" y="291.69000000000005" as="targetPoint" />
            <Array as="points" />
          </mxGeometry>
        </mxCell>
        <mxCell id="CbpCGGBYd-PtxAxwNIze-22" value="subscribe(userId, gameId)" style="verticalAlign=bottom;endArrow=block;shadow=0;strokeWidth=1;" parent="1" source="CbpCGGBYd-PtxAxwNIze-8" edge="1">
          <mxGeometry relative="1" as="geometry">
            <mxPoint x="880" y="294" as="sourcePoint" />
            <mxPoint x="1055" y="293.9599999999999" as="targetPoint" />
          </mxGeometry>
        </mxCell>
        <mxCell id="CbpCGGBYd-PtxAxwNIze-24" value="&lt;b&gt;[game does not exists]&lt;/b&gt;" style="text;html=1;strokeColor=none;fillColor=none;align=center;verticalAlign=middle;whiteSpace=wrap;rounded=0;" parent="1" vertex="1">
          <mxGeometry x="1090" y="300" width="170" height="30" as="geometry" />
        </mxCell>
        <mxCell id="CbpCGGBYd-PtxAxwNIze-26" value="new VirtualView(gameId)" style="verticalAlign=bottom;endArrow=block;shadow=0;strokeWidth=1;" parent="1" source="CbpCGGBYd-PtxAxwNIze-12" target="CbpCGGBYd-PtxAxwNIze-16" edge="1">
          <mxGeometry relative="1" as="geometry">
            <mxPoint x="1070" y="350" as="sourcePoint" />
            <mxPoint x="1245" y="350.0000000000001" as="targetPoint" />
            <Array as="points">
              <mxPoint x="1080" y="350" />
            </Array>
          </mxGeometry>
        </mxCell>
        <mxCell id="CbpCGGBYd-PtxAxwNIze-27" value="" style="points=[];perimeter=orthogonalPerimeter;rounded=0;shadow=0;strokeWidth=1;" parent="1" vertex="1">
          <mxGeometry x="1255" y="400" width="10" height="290" as="geometry" />
        </mxCell>
        <mxCell id="CbpCGGBYd-PtxAxwNIze-28" value="" style="verticalAlign=bottom;endArrow=open;dashed=1;endSize=8;shadow=0;strokeWidth=1;" parent="1" source="CbpCGGBYd-PtxAxwNIze-16" target="CbpCGGBYd-PtxAxwNIze-12" edge="1">
          <mxGeometry relative="1" as="geometry">
            <mxPoint x="789.9999999999998" y="390.00000000000006" as="targetPoint" />
            <mxPoint x="1385.31" y="390.00000000000006" as="sourcePoint" />
          </mxGeometry>
        </mxCell>
        <mxCell id="UPu-GSjByRsGBZdqt5K7-31" value=":Client" style="shape=umlLifeline;perimeter=lifelinePerimeter;container=1;collapsible=0;recursiveResize=0;rounded=0;shadow=0;strokeWidth=1;fillColor=#d5e8d4;strokeColor=#82b366;" parent="1" vertex="1">
          <mxGeometry x="120" y="1043" width="100" height="590" as="geometry" />
        </mxCell>
        <mxCell id="UPu-GSjByRsGBZdqt5K7-32" value="" style="points=[];perimeter=orthogonalPerimeter;rounded=0;shadow=0;strokeWidth=1;" parent="UPu-GSjByRsGBZdqt5K7-31" vertex="1">
          <mxGeometry x="45" y="40" width="10" height="540" as="geometry" />
        </mxCell>
        <mxCell id="UPu-GSjByRsGBZdqt5K7-33" value=":ClientConnector" style="shape=umlLifeline;perimeter=lifelinePerimeter;container=1;collapsible=0;recursiveResize=0;rounded=0;shadow=0;strokeWidth=1;fillColor=#d5e8d4;strokeColor=#82b366;" parent="1" vertex="1">
          <mxGeometry x="320" y="1043" width="100" height="580" as="geometry" />
        </mxCell>
        <mxCell id="UPu-GSjByRsGBZdqt5K7-34" value="" style="points=[];perimeter=orthogonalPerimeter;rounded=0;shadow=0;strokeWidth=1;" parent="UPu-GSjByRsGBZdqt5K7-33" vertex="1">
          <mxGeometry x="45" y="40" width="10" height="520" as="geometry" />
        </mxCell>
        <mxCell id="UPu-GSjByRsGBZdqt5K7-36" value="sendCommand(activateLeaderCard)" style="verticalAlign=bottom;endArrow=block;shadow=0;strokeWidth=1;exitX=0.986;exitY=0.117;exitDx=0;exitDy=0;exitPerimeter=0;" parent="1" source="UPu-GSjByRsGBZdqt5K7-32" target="UPu-GSjByRsGBZdqt5K7-34" edge="1">
          <mxGeometry relative="1" as="geometry">
            <mxPoint x="175" y="1113.76" as="sourcePoint" />
            <mxPoint x="365.72" y="1113.76" as="targetPoint" />
          </mxGeometry>
        </mxCell>
        <mxCell id="UPu-GSjByRsGBZdqt5K7-37" value=":VirtualView" style="shape=umlLifeline;perimeter=lifelinePerimeter;container=1;collapsible=0;recursiveResize=0;rounded=0;shadow=0;strokeWidth=1;fillColor=#dae8fc;strokeColor=#6c8ebf;" parent="1" vertex="1">
          <mxGeometry x="610" y="1043" width="100" height="570" as="geometry" />
        </mxCell>
        <mxCell id="UPu-GSjByRsGBZdqt5K7-38" value="" style="points=[];perimeter=orthogonalPerimeter;rounded=0;shadow=0;strokeWidth=1;" parent="UPu-GSjByRsGBZdqt5K7-37" vertex="1">
          <mxGeometry x="45" y="40" width="10" height="510" as="geometry" />
        </mxCell>
        <mxCell id="UPu-GSjByRsGBZdqt5K7-39" value=":GameController" style="shape=umlLifeline;perimeter=lifelinePerimeter;container=1;collapsible=0;recursiveResize=0;rounded=0;shadow=0;strokeWidth=1;fillColor=#f8cecc;strokeColor=#b85450;" parent="1" vertex="1">
          <mxGeometry x="790" y="1043" width="150" height="570" as="geometry" />
        </mxCell>
        <mxCell id="UPu-GSjByRsGBZdqt5K7-40" value="" style="points=[];perimeter=orthogonalPerimeter;rounded=0;shadow=0;strokeWidth=1;" parent="UPu-GSjByRsGBZdqt5K7-39" vertex="1">
          <mxGeometry x="70" y="40" width="10" height="520" as="geometry" />
        </mxCell>
        <mxCell id="UPu-GSjByRsGBZdqt5K7-41" value=":Player" style="shape=umlLifeline;perimeter=lifelinePerimeter;container=1;collapsible=0;recursiveResize=0;rounded=0;shadow=0;strokeWidth=1;fillColor=#fff2cc;strokeColor=#d6b656;" parent="1" vertex="1">
          <mxGeometry x="1010" y="1043" width="100" height="580" as="geometry" />
        </mxCell>
        <mxCell id="UPu-GSjByRsGBZdqt5K7-42" value="" style="points=[];perimeter=orthogonalPerimeter;rounded=0;shadow=0;strokeWidth=1;" parent="UPu-GSjByRsGBZdqt5K7-41" vertex="1">
          <mxGeometry x="45" y="40" width="10" height="520" as="geometry" />
        </mxCell>
        <mxCell id="UPu-GSjByRsGBZdqt5K7-43" value=":Card" style="shape=umlLifeline;perimeter=lifelinePerimeter;container=1;collapsible=0;recursiveResize=0;rounded=0;shadow=0;strokeWidth=1;fillColor=#fff2cc;strokeColor=#d6b656;" parent="1" vertex="1">
          <mxGeometry x="1210" y="1043" width="100" height="570" as="geometry" />
        </mxCell>
        <mxCell id="UPu-GSjByRsGBZdqt5K7-44" value="" style="points=[];perimeter=orthogonalPerimeter;rounded=0;shadow=0;strokeWidth=1;" parent="UPu-GSjByRsGBZdqt5K7-43" vertex="1">
          <mxGeometry x="45" y="40" width="10" height="520" as="geometry" />
        </mxCell>
        <mxCell id="UPu-GSjByRsGBZdqt5K7-49" value="activateLeaderCard(card)" style="verticalAlign=bottom;endArrow=block;shadow=0;strokeWidth=1;" parent="1" edge="1">
          <mxGeometry relative="1" as="geometry">
            <mxPoint x="870" y="1220" as="sourcePoint" />
            <mxPoint x="1055" y="1220" as="targetPoint" />
            <Array as="points">
              <mxPoint x="920" y="1220" />
            </Array>
          </mxGeometry>
        </mxCell>
        <mxCell id="UPu-GSjByRsGBZdqt5K7-50" value="&lt;b&gt;[the player has the requirements]&lt;/b&gt;" style="text;html=1;strokeColor=none;fillColor=none;align=center;verticalAlign=middle;whiteSpace=wrap;rounded=0;" parent="1" vertex="1">
          <mxGeometry x="220" y="1290" width="160" height="20" as="geometry" />
        </mxCell>
        <mxCell id="UPu-GSjByRsGBZdqt5K7-53" value="OK" style="verticalAlign=bottom;endArrow=open;dashed=1;endSize=8;shadow=0;strokeWidth=1;" parent="1" edge="1">
          <mxGeometry relative="1" as="geometry">
            <mxPoint x="1065" y="1374" as="targetPoint" />
            <mxPoint x="1255" y="1374" as="sourcePoint" />
            <Array as="points">
              <mxPoint x="1220" y="1374" />
            </Array>
          </mxGeometry>
        </mxCell>
        <mxCell id="UPu-GSjByRsGBZdqt5K7-62" value="isEligible(player)" style="verticalAlign=bottom;endArrow=block;shadow=0;strokeWidth=1;exitX=1.003;exitY=0.246;exitDx=0;exitDy=0;exitPerimeter=0;" parent="1" edge="1">
          <mxGeometry relative="1" as="geometry">
            <mxPoint x="1065.0299999999997" y="1292.92" as="sourcePoint" />
            <mxPoint x="1255" y="1292.92" as="targetPoint" />
          </mxGeometry>
        </mxCell>
        <mxCell id="UPu-GSjByRsGBZdqt5K7-64" value="OK" style="verticalAlign=bottom;endArrow=open;dashed=1;endSize=8;shadow=0;strokeWidth=1;" parent="1" edge="1">
          <mxGeometry relative="1" as="geometry">
            <mxPoint x="870" y="1380" as="targetPoint" />
            <mxPoint x="1055" y="1380" as="sourcePoint" />
          </mxGeometry>
        </mxCell>
        <mxCell id="UPu-GSjByRsGBZdqt5K7-65" value="OK" style="verticalAlign=bottom;endArrow=open;dashed=1;endSize=8;shadow=0;strokeWidth=1;entryX=0.88;entryY=0.365;entryDx=0;entryDy=0;entryPerimeter=0;" parent="1" edge="1">
          <mxGeometry relative="1" as="geometry">
            <mxPoint x="663.7999999999997" y="1407.15" as="targetPoint" />
            <mxPoint x="860" y="1407.15" as="sourcePoint" />
          </mxGeometry>
        </mxCell>
        <mxCell id="UPu-GSjByRsGBZdqt5K7-69" value="OK" style="verticalAlign=bottom;endArrow=open;dashed=1;endSize=8;shadow=0;strokeWidth=1;entryX=0.986;entryY=0.415;entryDx=0;entryDy=0;entryPerimeter=0;" parent="1" edge="1">
          <mxGeometry relative="1" as="geometry">
            <mxPoint x="374.8600000000001" y="1419.5" as="targetPoint" />
            <mxPoint x="655" y="1419.5" as="sourcePoint" />
          </mxGeometry>
        </mxCell>
        <mxCell id="UPu-GSjByRsGBZdqt5K7-70" value="OK" style="verticalAlign=bottom;endArrow=open;dashed=1;endSize=8;shadow=0;strokeWidth=1;entryX=1.057;entryY=0.436;entryDx=0;entryDy=0;entryPerimeter=0;" parent="1" edge="1">
          <mxGeometry relative="1" as="geometry">
            <mxPoint x="175.56999999999994" y="1443.3600000000001" as="targetPoint" />
            <mxPoint x="365" y="1443.3600000000001" as="sourcePoint" />
          </mxGeometry>
        </mxCell>
        <mxCell id="UPu-GSjByRsGBZdqt5K7-73" value="&lt;b&gt;[the player does not have the requirements]&lt;/b&gt;" style="text;html=1;strokeColor=none;fillColor=none;align=center;verticalAlign=middle;whiteSpace=wrap;rounded=0;" parent="1" vertex="1">
          <mxGeometry x="190" y="1462" width="145" height="20" as="geometry" />
        </mxCell>
        <mxCell id="UPu-GSjByRsGBZdqt5K7-75" value="KO" style="verticalAlign=bottom;endArrow=open;dashed=1;endSize=8;shadow=0;strokeWidth=1;" parent="1" edge="1">
          <mxGeometry relative="1" as="geometry">
            <mxPoint x="870" y="1506" as="targetPoint" />
            <mxPoint x="1055" y="1506" as="sourcePoint" />
          </mxGeometry>
        </mxCell>
        <mxCell id="UPu-GSjByRsGBZdqt5K7-76" value="KO" style="verticalAlign=bottom;endArrow=open;dashed=1;endSize=8;shadow=0;strokeWidth=1;entryX=0.88;entryY=0.365;entryDx=0;entryDy=0;entryPerimeter=0;" parent="1" edge="1">
          <mxGeometry relative="1" as="geometry">
            <mxPoint x="663.7999999999997" y="1533.15" as="targetPoint" />
            <mxPoint x="860" y="1533.15" as="sourcePoint" />
          </mxGeometry>
        </mxCell>
        <mxCell id="UPu-GSjByRsGBZdqt5K7-77" value="KO" style="verticalAlign=bottom;endArrow=open;dashed=1;endSize=8;shadow=0;strokeWidth=1;entryX=0.986;entryY=0.415;entryDx=0;entryDy=0;entryPerimeter=0;" parent="1" edge="1">
          <mxGeometry relative="1" as="geometry">
            <mxPoint x="374.86000000000035" y="1545.5" as="targetPoint" />
            <mxPoint x="655" y="1545.5" as="sourcePoint" />
          </mxGeometry>
        </mxCell>
        <mxCell id="UPu-GSjByRsGBZdqt5K7-78" value="KO" style="verticalAlign=bottom;endArrow=open;dashed=1;endSize=8;shadow=0;strokeWidth=1;entryX=1.057;entryY=0.436;entryDx=0;entryDy=0;entryPerimeter=0;" parent="1" edge="1">
          <mxGeometry relative="1" as="geometry">
            <mxPoint x="175.56999999999994" y="1569.3600000000001" as="targetPoint" />
            <mxPoint x="365" y="1569.3600000000001" as="sourcePoint" />
          </mxGeometry>
        </mxCell>
        <mxCell id="UPu-GSjByRsGBZdqt5K7-79" value="activate(player)" style="verticalAlign=bottom;endArrow=block;shadow=0;strokeWidth=1;exitX=1.003;exitY=0.246;exitDx=0;exitDy=0;exitPerimeter=0;" parent="1" edge="1">
          <mxGeometry relative="1" as="geometry">
            <mxPoint x="1065.0299999999997" y="1352.92" as="sourcePoint" />
            <mxPoint x="1255" y="1352.92" as="targetPoint" />
          </mxGeometry>
        </mxCell>
        <mxCell id="UPu-GSjByRsGBZdqt5K7-80" value="OK" style="verticalAlign=bottom;endArrow=open;dashed=1;endSize=8;shadow=0;strokeWidth=1;" parent="1" edge="1">
          <mxGeometry relative="1" as="geometry">
            <mxPoint x="1065" y="1312" as="targetPoint" />
            <mxPoint x="1255" y="1312" as="sourcePoint" />
            <Array as="points">
              <mxPoint x="1220" y="1312" />
            </Array>
          </mxGeometry>
        </mxCell>
        <mxCell id="UPu-GSjByRsGBZdqt5K7-83" value="isEligible(player)" style="verticalAlign=bottom;endArrow=block;shadow=0;strokeWidth=1;exitX=1.003;exitY=0.246;exitDx=0;exitDy=0;exitPerimeter=0;" parent="1" edge="1">
          <mxGeometry relative="1" as="geometry">
            <mxPoint x="1065.0300000000002" y="1469" as="sourcePoint" />
            <mxPoint x="1255" y="1469" as="targetPoint" />
          </mxGeometry>
        </mxCell>
        <mxCell id="UPu-GSjByRsGBZdqt5K7-84" value="KO" style="verticalAlign=bottom;endArrow=open;dashed=1;endSize=8;shadow=0;strokeWidth=1;" parent="1" edge="1">
          <mxGeometry relative="1" as="geometry">
            <mxPoint x="1065" y="1486.08" as="targetPoint" />
            <mxPoint x="1255" y="1486.08" as="sourcePoint" />
            <Array as="points">
              <mxPoint x="1220" y="1486.08" />
            </Array>
          </mxGeometry>
        </mxCell>
        <mxCell id="UPu-GSjByRsGBZdqt5K7-87" value="" style="verticalAlign=bottom;endArrow=none;dashed=1;endSize=8;shadow=0;strokeWidth=1;endFill=0;dashPattern=1 1;" parent="1" edge="1">
          <mxGeometry relative="1" as="geometry">
            <mxPoint x="1065" y="1323" as="targetPoint" />
            <mxPoint x="1255" y="1323" as="sourcePoint" />
            <Array as="points">
              <mxPoint x="1220" y="1323" />
            </Array>
          </mxGeometry>
        </mxCell>
        <mxCell id="UPu-GSjByRsGBZdqt5K7-227" value=":Client" style="shape=umlLifeline;perimeter=lifelinePerimeter;container=1;collapsible=0;recursiveResize=0;rounded=0;shadow=0;strokeWidth=1;fillColor=#d5e8d4;strokeColor=#82b366;" parent="1" vertex="1">
          <mxGeometry x="120" y="2000" width="100" height="590" as="geometry" />
        </mxCell>
        <mxCell id="UPu-GSjByRsGBZdqt5K7-228" value="" style="points=[];perimeter=orthogonalPerimeter;rounded=0;shadow=0;strokeWidth=1;" parent="UPu-GSjByRsGBZdqt5K7-227" vertex="1">
          <mxGeometry x="45" y="40" width="10" height="540" as="geometry" />
        </mxCell>
        <mxCell id="UPu-GSjByRsGBZdqt5K7-229" value=":ClientConnector" style="shape=umlLifeline;perimeter=lifelinePerimeter;container=1;collapsible=0;recursiveResize=0;rounded=0;shadow=0;strokeWidth=1;fillColor=#d5e8d4;strokeColor=#82b366;" parent="1" vertex="1">
          <mxGeometry x="320" y="2000" width="100" height="580" as="geometry" />
        </mxCell>
        <mxCell id="UPu-GSjByRsGBZdqt5K7-230" value="" style="points=[];perimeter=orthogonalPerimeter;rounded=0;shadow=0;strokeWidth=1;" parent="UPu-GSjByRsGBZdqt5K7-229" vertex="1">
          <mxGeometry x="45" y="40" width="10" height="520" as="geometry" />
        </mxCell>
        <mxCell id="UPu-GSjByRsGBZdqt5K7-231" value="sendCommand(pickFromMarket)" style="verticalAlign=bottom;endArrow=block;entryX=0.072;entryY=0.038;shadow=0;strokeWidth=1;entryDx=0;entryDy=0;entryPerimeter=0;" parent="1" edge="1">
          <mxGeometry relative="1" as="geometry">
            <mxPoint x="175" y="2080.7599999999998" as="sourcePoint" />
            <mxPoint x="365.72" y="2080.7599999999998" as="targetPoint" />
          </mxGeometry>
        </mxCell>
        <mxCell id="UPu-GSjByRsGBZdqt5K7-232" value=":VirtualView" style="shape=umlLifeline;perimeter=lifelinePerimeter;container=1;collapsible=0;recursiveResize=0;rounded=0;shadow=0;strokeWidth=1;fillColor=#dae8fc;strokeColor=#6c8ebf;" parent="1" vertex="1">
          <mxGeometry x="610" y="2000" width="100" height="570" as="geometry" />
        </mxCell>
        <mxCell id="UPu-GSjByRsGBZdqt5K7-233" value="" style="points=[];perimeter=orthogonalPerimeter;rounded=0;shadow=0;strokeWidth=1;" parent="UPu-GSjByRsGBZdqt5K7-232" vertex="1">
          <mxGeometry x="45" y="40" width="10" height="510" as="geometry" />
        </mxCell>
        <mxCell id="UPu-GSjByRsGBZdqt5K7-284" value="sendUpdate(unfinishedAction)" style="verticalAlign=bottom;endArrow=open;endSize=8;shadow=0;strokeWidth=1;exitX=0.986;exitY=0.437;exitDx=0;exitDy=0;exitPerimeter=0;rounded=0;" parent="UPu-GSjByRsGBZdqt5K7-232" edge="1">
          <mxGeometry x="0.3" y="-85" relative="1" as="geometry">
            <mxPoint x="55" y="300" as="targetPoint" />
            <mxPoint x="54.86000000000013" y="282.8699999999999" as="sourcePoint" />
            <Array as="points">
              <mxPoint x="75" y="283" />
              <mxPoint x="75" y="300" />
            </Array>
            <mxPoint x="85" y="85" as="offset" />
          </mxGeometry>
        </mxCell>
        <mxCell id="y8Ypokq91T0ESG7gPPG8-72" value="notifyObservers()" style="edgeStyle=orthogonalEdgeStyle;html=1;align=left;spacingLeft=2;endArrow=block;rounded=0;strokeWidth=1;" parent="UPu-GSjByRsGBZdqt5K7-232" edge="1">
          <mxGeometry relative="1" as="geometry">
            <mxPoint x="55" y="82" as="sourcePoint" />
            <Array as="points">
              <mxPoint x="90" y="82" />
              <mxPoint x="90" y="102" />
            </Array>
            <mxPoint x="55" y="102" as="targetPoint" />
          </mxGeometry>
        </mxCell>
        <mxCell id="UPu-GSjByRsGBZdqt5K7-234" value=":GameController" style="shape=umlLifeline;perimeter=lifelinePerimeter;container=1;collapsible=0;recursiveResize=0;rounded=0;shadow=0;strokeWidth=1;fillColor=#f8cecc;strokeColor=#b85450;" parent="1" vertex="1">
          <mxGeometry x="790" y="2000" width="150" height="570" as="geometry" />
        </mxCell>
        <mxCell id="UPu-GSjByRsGBZdqt5K7-235" value="" style="points=[];perimeter=orthogonalPerimeter;rounded=0;shadow=0;strokeWidth=1;" parent="UPu-GSjByRsGBZdqt5K7-234" vertex="1">
          <mxGeometry x="70" y="40" width="10" height="520" as="geometry" />
        </mxCell>
        <mxCell id="y8Ypokq91T0ESG7gPPG8-73" value="update(virtView,&amp;nbsp;&lt;span style=&quot;text-align: center&quot;&gt;pickFromMarket&lt;/span&gt;)" style="edgeStyle=orthogonalEdgeStyle;html=1;align=left;spacingLeft=2;endArrow=block;rounded=0;strokeWidth=1;" parent="UPu-GSjByRsGBZdqt5K7-234" source="UPu-GSjByRsGBZdqt5K7-235" target="UPu-GSjByRsGBZdqt5K7-235" edge="1">
          <mxGeometry x="0.0904" y="-153" relative="1" as="geometry">
            <mxPoint x="73" y="108" as="sourcePoint" />
            <Array as="points">
              <mxPoint x="43" y="105" />
              <mxPoint x="43" y="128" />
            </Array>
            <mxPoint x="73" y="128" as="targetPoint" />
            <mxPoint as="offset" />
          </mxGeometry>
        </mxCell>
        <mxCell id="UPu-GSjByRsGBZdqt5K7-236" value=":Game" style="shape=umlLifeline;perimeter=lifelinePerimeter;container=1;collapsible=0;recursiveResize=0;rounded=0;shadow=0;strokeWidth=1;fillColor=#fff2cc;strokeColor=#d6b656;" parent="1" vertex="1">
          <mxGeometry x="1010" y="2000" width="100" height="580" as="geometry" />
        </mxCell>
        <mxCell id="UPu-GSjByRsGBZdqt5K7-237" value="" style="points=[];perimeter=orthogonalPerimeter;rounded=0;shadow=0;strokeWidth=1;" parent="UPu-GSjByRsGBZdqt5K7-236" vertex="1">
          <mxGeometry x="45" y="40" width="10" height="520" as="geometry" />
        </mxCell>
        <mxCell id="y8Ypokq91T0ESG7gPPG8-66" value="notifyObservers()" style="edgeStyle=orthogonalEdgeStyle;html=1;align=left;spacingLeft=2;endArrow=block;rounded=0;strokeWidth=1;" parent="UPu-GSjByRsGBZdqt5K7-236" edge="1">
          <mxGeometry y="-90" relative="1" as="geometry">
            <mxPoint x="44" y="249" as="sourcePoint" />
            <Array as="points">
              <mxPoint y="249" />
              <mxPoint y="269" />
            </Array>
            <mxPoint x="44" y="269" as="targetPoint" />
            <mxPoint as="offset" />
          </mxGeometry>
        </mxCell>
        <mxCell id="UPu-GSjByRsGBZdqt5K7-238" value=":TakeFromMarket" style="shape=umlLifeline;perimeter=lifelinePerimeter;container=1;collapsible=0;recursiveResize=0;rounded=0;shadow=0;strokeWidth=1;fillColor=#fff2cc;strokeColor=#d6b656;" parent="1" vertex="1">
          <mxGeometry x="1200" y="2000" width="120" height="570" as="geometry" />
        </mxCell>
        <mxCell id="UPu-GSjByRsGBZdqt5K7-239" value="" style="points=[];perimeter=orthogonalPerimeter;rounded=0;shadow=0;strokeWidth=1;" parent="UPu-GSjByRsGBZdqt5K7-238" vertex="1">
          <mxGeometry x="55" y="40" width="10" height="520" as="geometry" />
        </mxCell>
        <mxCell id="UPu-GSjByRsGBZdqt5K7-241" value="sendCommand(pickFromMarket)" style="verticalAlign=bottom;endArrow=block;shadow=0;strokeWidth=1;exitX=0.929;exitY=0.061;exitDx=0;exitDy=0;exitPerimeter=0;" parent="1" edge="1">
          <mxGeometry relative="1" as="geometry">
            <mxPoint x="374.28999999999996" y="2084.7200000000003" as="sourcePoint" />
            <mxPoint x="655" y="2084.7200000000003" as="targetPoint" />
            <Array as="points" />
          </mxGeometry>
        </mxCell>
        <mxCell id="UPu-GSjByRsGBZdqt5K7-253" value="sendUpdate(unfinishedAction)" style="verticalAlign=bottom;endArrow=open;endSize=8;shadow=0;strokeWidth=1;" parent="1" edge="1">
          <mxGeometry relative="1" as="geometry">
            <mxPoint x="374.9999999999998" y="2307" as="targetPoint" />
            <mxPoint x="654.9999999999998" y="2307" as="sourcePoint" />
          </mxGeometry>
        </mxCell>
        <mxCell id="UPu-GSjByRsGBZdqt5K7-254" value="updateView(missingDataForAction)" style="verticalAlign=bottom;endArrow=open;endSize=8;shadow=0;strokeWidth=1;" parent="1" edge="1">
          <mxGeometry relative="1" as="geometry">
            <mxPoint x="175" y="2312" as="targetPoint" />
            <mxPoint x="364.9999999999998" y="2312" as="sourcePoint" />
            <Array as="points">
              <mxPoint x="320" y="2312" />
            </Array>
            <mxPoint as="offset" />
          </mxGeometry>
        </mxCell>
        <mxCell id="UPu-GSjByRsGBZdqt5K7-266" value="setStrategy(pickFromMarket, player)" style="verticalAlign=bottom;endArrow=block;shadow=0;strokeWidth=1;exitX=0.929;exitY=0.101;exitDx=0;exitDy=0;exitPerimeter=0;" parent="1" edge="1">
          <mxGeometry relative="1" as="geometry">
            <mxPoint x="868.2900000000002" y="2170.52" as="sourcePoint" />
            <mxPoint x="1054" y="2170.52" as="targetPoint" />
          </mxGeometry>
        </mxCell>
        <mxCell id="UPu-GSjByRsGBZdqt5K7-271" value="play(player)" style="verticalAlign=bottom;endArrow=block;shadow=0;strokeWidth=1;exitX=1.076;exitY=0.17;exitDx=0;exitDy=0;exitPerimeter=0;" parent="1" edge="1">
          <mxGeometry relative="1" as="geometry">
            <mxPoint x="869.7599999999998" y="2206.3999999999996" as="sourcePoint" />
            <mxPoint x="1254" y="2206.3999999999996" as="targetPoint" />
          </mxGeometry>
        </mxCell>
        <mxCell id="UPu-GSjByRsGBZdqt5K7-275" value="OK" style="verticalAlign=bottom;endArrow=open;dashed=1;endSize=8;shadow=0;strokeWidth=1;exitX=0.057;exitY=0.139;exitDx=0;exitDy=0;exitPerimeter=0;" parent="1" edge="1">
          <mxGeometry relative="1" as="geometry">
            <mxPoint x="869" y="2187.28" as="targetPoint" />
            <mxPoint x="1054.5699999999997" y="2187.28" as="sourcePoint" />
          </mxGeometry>
        </mxCell>
        <mxCell id="UPu-GSjByRsGBZdqt5K7-276" value="OK" style="verticalAlign=bottom;endArrow=open;dashed=1;endSize=8;shadow=0;strokeWidth=1;" parent="1" edge="1">
          <mxGeometry relative="1" as="geometry">
            <mxPoint x="869" y="2224.24" as="targetPoint" />
            <mxPoint x="1254" y="2224.24" as="sourcePoint" />
          </mxGeometry>
        </mxCell>
        <mxCell id="UPu-GSjByRsGBZdqt5K7-280" value="OK" style="verticalAlign=bottom;endArrow=open;dashed=1;endSize=8;shadow=0;strokeWidth=1;exitX=-0.062;exitY=0.281;exitDx=0;exitDy=0;exitPerimeter=0;" parent="1" edge="1">
          <mxGeometry relative="1" as="geometry">
            <mxPoint x="665" y="2197.1200000000003" as="targetPoint" />
            <mxPoint x="859.3800000000001" y="2197.1200000000003" as="sourcePoint" />
          </mxGeometry>
        </mxCell>
        <mxCell id="UPu-GSjByRsGBZdqt5K7-282" value="OK" style="verticalAlign=bottom;endArrow=open;dashed=1;endSize=8;shadow=0;strokeWidth=1;exitX=-0.066;exitY=0.316;exitDx=0;exitDy=0;exitPerimeter=0;" parent="1" edge="1">
          <mxGeometry relative="1" as="geometry">
            <mxPoint x="175" y="2212.32" as="targetPoint" />
            <mxPoint x="364.34000000000015" y="2212.32" as="sourcePoint" />
          </mxGeometry>
        </mxCell>
        <mxCell id="UPu-GSjByRsGBZdqt5K7-283" value="&lt;b&gt;[the action is not finished&lt;/b&gt;" style="text;html=1;strokeColor=none;fillColor=none;align=center;verticalAlign=middle;whiteSpace=wrap;rounded=0;" parent="1" vertex="1">
          <mxGeometry x="220" y="2244" width="130" height="23" as="geometry" />
        </mxCell>
        <mxCell id="UPu-GSjByRsGBZdqt5K7-287" value="OK" style="verticalAlign=bottom;endArrow=open;dashed=1;endSize=8;shadow=0;strokeWidth=1;exitX=-0.181;exitY=0.306;exitDx=0;exitDy=0;exitPerimeter=0;" parent="1" edge="1">
          <mxGeometry relative="1" as="geometry">
            <mxPoint x="375" y="2204.06" as="targetPoint" />
            <mxPoint x="653.19" y="2204.06" as="sourcePoint" />
          </mxGeometry>
        </mxCell>
        <mxCell id="UPu-GSjByRsGBZdqt5K7-288" value="OK" style="verticalAlign=bottom;endArrow=none;dashed=1;endSize=8;shadow=0;strokeWidth=1;exitX=0.01;exitY=0.567;exitDx=0;exitDy=0;exitPerimeter=0;endFill=0;startArrow=classic;startFill=1;" parent="1" edge="1">
          <mxGeometry relative="1" as="geometry">
            <mxPoint x="175" y="2331.84" as="targetPoint" />
            <mxPoint x="365.10000000000014" y="2331.84" as="sourcePoint" />
          </mxGeometry>
        </mxCell>
        <mxCell id="UPu-GSjByRsGBZdqt5K7-291" value="OK" style="verticalAlign=bottom;endArrow=none;dashed=1;endSize=8;shadow=0;strokeWidth=1;endFill=0;startArrow=classic;startFill=1;exitX=0.057;exitY=0.588;exitDx=0;exitDy=0;exitPerimeter=0;" parent="1" source="UPu-GSjByRsGBZdqt5K7-233" target="UPu-GSjByRsGBZdqt5K7-230" edge="1">
          <mxGeometry relative="1" as="geometry">
            <mxPoint x="375" y="2322" as="targetPoint" />
            <mxPoint x="655" y="2322" as="sourcePoint" />
          </mxGeometry>
        </mxCell>
        <mxCell id="y8Ypokq91T0ESG7gPPG8-2" value="" style="verticalAlign=bottom;endArrow=open;dashed=1;endSize=8;shadow=0;strokeWidth=1;exitX=0.019;exitY=0.076;exitDx=0;exitDy=0;exitPerimeter=0;" parent="1" source="3nuBFxr9cyL0pnOWT2aG-6" target="3nuBFxr9cyL0pnOWT2aG-2" edge="1">
          <mxGeometry relative="1" as="geometry">
            <mxPoint x="209.99999999999991" y="252.20000000000005" as="targetPoint" />
            <mxPoint x="693.9000000000002" y="252.20000000000005" as="sourcePoint" />
          </mxGeometry>
        </mxCell>
        <mxCell id="y8Ypokq91T0ESG7gPPG8-10" value="OK" style="verticalAlign=bottom;endArrow=open;dashed=1;endSize=8;shadow=0;strokeWidth=1;" parent="1" edge="1">
          <mxGeometry x="175.56999999999994" y="322.08" as="geometry">
            <mxPoint x="1065" y="461.08" as="targetPoint" />
            <mxPoint x="1255" y="461.08" as="sourcePoint" />
            <Array as="points">
              <mxPoint x="1220" y="461.08" />
            </Array>
          </mxGeometry>
        </mxCell>
        <mxCell id="y8Ypokq91T0ESG7gPPG8-11" value="OK" style="verticalAlign=bottom;endArrow=open;dashed=1;endSize=8;shadow=0;strokeWidth=1;" parent="1" edge="1">
          <mxGeometry x="175.56999999999994" y="322.08" as="geometry">
            <mxPoint x="870.0000000000001" y="470.08" as="targetPoint" />
            <mxPoint x="1055" y="470.08" as="sourcePoint" />
          </mxGeometry>
        </mxCell>
        <mxCell id="y8Ypokq91T0ESG7gPPG8-12" value="OK" style="verticalAlign=bottom;endArrow=open;dashed=1;endSize=8;shadow=0;strokeWidth=1;entryX=0.88;entryY=0.365;entryDx=0;entryDy=0;entryPerimeter=0;" parent="1" edge="1">
          <mxGeometry x="175.56999999999994" y="322.08" as="geometry">
            <mxPoint x="663.7999999999997" y="497.2300000000001" as="targetPoint" />
            <mxPoint x="860.0000000000001" y="497.2300000000001" as="sourcePoint" />
          </mxGeometry>
        </mxCell>
        <mxCell id="y8Ypokq91T0ESG7gPPG8-13" value="OK" style="verticalAlign=bottom;endArrow=open;dashed=1;endSize=8;shadow=0;strokeWidth=1;entryX=0.986;entryY=0.415;entryDx=0;entryDy=0;entryPerimeter=0;" parent="1" edge="1">
          <mxGeometry x="175.56999999999994" y="322.08" as="geometry">
            <mxPoint x="374.8600000000001" y="509.58" as="targetPoint" />
            <mxPoint x="655" y="509.58" as="sourcePoint" />
          </mxGeometry>
        </mxCell>
        <mxCell id="y8Ypokq91T0ESG7gPPG8-14" value="OK" style="verticalAlign=bottom;endArrow=open;dashed=1;endSize=8;shadow=0;strokeWidth=1;entryX=1.057;entryY=0.436;entryDx=0;entryDy=0;entryPerimeter=0;" parent="1" edge="1">
          <mxGeometry x="175.56999999999994" y="322.08" as="geometry">
            <mxPoint x="175.56999999999994" y="533.44" as="targetPoint" />
            <mxPoint x="365" y="533.44" as="sourcePoint" />
          </mxGeometry>
        </mxCell>
        <mxCell id="y8Ypokq91T0ESG7gPPG8-15" value="KO" style="verticalAlign=bottom;endArrow=open;dashed=1;endSize=8;shadow=0;strokeWidth=1;" parent="1" edge="1">
          <mxGeometry x="175.56999999999994" y="335.95" as="geometry">
            <mxPoint x="870" y="625" as="targetPoint" />
            <mxPoint x="1055" y="624.95" as="sourcePoint" />
          </mxGeometry>
        </mxCell>
        <mxCell id="y8Ypokq91T0ESG7gPPG8-16" value="KO" style="verticalAlign=bottom;endArrow=open;dashed=1;endSize=8;shadow=0;strokeWidth=1;entryX=0.88;entryY=0.365;entryDx=0;entryDy=0;entryPerimeter=0;" parent="1" edge="1">
          <mxGeometry x="175.56999999999994" y="326.95" as="geometry">
            <mxPoint x="663.7999999999997" y="643.1000000000001" as="targetPoint" />
            <mxPoint x="860.0000000000001" y="643.1000000000001" as="sourcePoint" />
          </mxGeometry>
        </mxCell>
        <mxCell id="y8Ypokq91T0ESG7gPPG8-17" value="KO" style="verticalAlign=bottom;endArrow=open;dashed=1;endSize=8;shadow=0;strokeWidth=1;entryX=0.986;entryY=0.415;entryDx=0;entryDy=0;entryPerimeter=0;" parent="1" edge="1">
          <mxGeometry x="175.56999999999994" y="326.95" as="geometry">
            <mxPoint x="374.86000000000035" y="655.45" as="targetPoint" />
            <mxPoint x="655" y="655.45" as="sourcePoint" />
          </mxGeometry>
        </mxCell>
        <mxCell id="y8Ypokq91T0ESG7gPPG8-18" value="KO" style="verticalAlign=bottom;endArrow=open;dashed=1;endSize=8;shadow=0;strokeWidth=1;entryX=1.057;entryY=0.436;entryDx=0;entryDy=0;entryPerimeter=0;" parent="1" edge="1">
          <mxGeometry x="175.56999999999994" y="314.95" as="geometry">
            <mxPoint x="175.56999999999994" y="667.3100000000002" as="targetPoint" />
            <mxPoint x="365" y="667.3100000000002" as="sourcePoint" />
          </mxGeometry>
        </mxCell>
        <mxCell id="y8Ypokq91T0ESG7gPPG8-19" value="add(playerId)" style="verticalAlign=bottom;endArrow=block;shadow=0;strokeWidth=1;exitX=1.003;exitY=0.246;exitDx=0;exitDy=0;exitPerimeter=0;" parent="1" edge="1">
          <mxGeometry x="175.56999999999994" y="322.08" as="geometry">
            <mxPoint x="1065.0299999999997" y="440.00000000000006" as="sourcePoint" />
            <mxPoint x="1255" y="440.00000000000006" as="targetPoint" />
          </mxGeometry>
        </mxCell>
        <mxCell id="y8Ypokq91T0ESG7gPPG8-21" value="KO" style="verticalAlign=bottom;endArrow=open;dashed=1;endSize=8;shadow=0;strokeWidth=1;" parent="1" edge="1">
          <mxGeometry x="175.56999999999994" y="332.95" as="geometry">
            <mxPoint x="1065" y="602.03" as="targetPoint" />
            <mxPoint x="1255" y="602.03" as="sourcePoint" />
            <Array as="points">
              <mxPoint x="1220" y="602.03" />
            </Array>
          </mxGeometry>
        </mxCell>
        <mxCell id="y8Ypokq91T0ESG7gPPG8-23" value="&lt;b&gt;[no other players with the same userId]&lt;/b&gt;" style="text;html=1;strokeColor=none;fillColor=none;align=center;verticalAlign=middle;whiteSpace=wrap;rounded=0;" parent="1" vertex="1">
          <mxGeometry x="220" y="390" width="140" height="30" as="geometry" />
        </mxCell>
        <mxCell id="y8Ypokq91T0ESG7gPPG8-24" value="" style="verticalAlign=bottom;endArrow=none;endSize=8;shadow=0;strokeWidth=2;endFill=0;dashed=1;" parent="1" target="3nuBFxr9cyL0pnOWT2aG-2" edge="1">
          <mxGeometry relative="1" as="geometry">
            <mxPoint x="1065.0000000000002" y="550" as="targetPoint" />
            <mxPoint x="1255" y="550" as="sourcePoint" />
            <Array as="points">
              <mxPoint x="1220" y="550" />
            </Array>
          </mxGeometry>
        </mxCell>
        <mxCell id="y8Ypokq91T0ESG7gPPG8-25" value="add(playerId)" style="verticalAlign=bottom;endArrow=block;shadow=0;strokeWidth=1;exitX=1.003;exitY=0.246;exitDx=0;exitDy=0;exitPerimeter=0;" parent="1" edge="1">
          <mxGeometry x="175.56999999999994" y="460.74" as="geometry">
            <mxPoint x="1065.0299999999997" y="578.66" as="sourcePoint" />
            <mxPoint x="1255" y="578.66" as="targetPoint" />
          </mxGeometry>
        </mxCell>
        <mxCell id="y8Ypokq91T0ESG7gPPG8-26" value="&lt;b&gt;[other player with the same userId]&lt;/b&gt;" style="text;html=1;strokeColor=none;fillColor=none;align=center;verticalAlign=middle;whiteSpace=wrap;rounded=0;" parent="1" vertex="1">
          <mxGeometry x="190" y="560" width="170" height="30" as="geometry" />
        </mxCell>
        <mxCell id="y8Ypokq91T0ESG7gPPG8-31" value="&lt;font style=&quot;font-size: 30px&quot;&gt;Player login&lt;/font&gt;" style="text;html=1;strokeColor=none;fillColor=none;align=center;verticalAlign=middle;whiteSpace=wrap;rounded=0;fontStyle=1" parent="1" vertex="1">
          <mxGeometry x="40" y="10" width="355" height="110" as="geometry" />
        </mxCell>
        <mxCell id="y8Ypokq91T0ESG7gPPG8-32" value="&lt;h1&gt;Connection of a player to the server&lt;/h1&gt;&lt;p&gt;From the Virtual View the operation of adding a player to a game is handled by the MVC pattern elements, but here it is not represented because we chose to highlight the client server interaction.&lt;br&gt;&lt;br&gt;&lt;/p&gt;&lt;p&gt;The role of server is to create a connection for each client and delegate its handling to a reserved PlayerConnectionHandler&lt;/p&gt;&lt;p&gt;PlayerConnectionHandler implements Runnable, after it gives the management of the connection with the client to the GamesRegistry it can return to the pool of the server&lt;br&gt;&lt;br&gt;&lt;/p&gt;&lt;p&gt;The GamesRegistry handle all the active games and their players. It is the object which operates the joining of the player to an actual game and checks if their userId is already in use.&lt;/p&gt;" style="text;html=1;strokeColor=none;fillColor=none;spacing=5;spacingTop=-20;whiteSpace=wrap;overflow=hidden;rounded=0;" parent="1" vertex="1">
          <mxGeometry x="1360" y="130" width="470" height="570" as="geometry" />
        </mxCell>
        <mxCell id="y8Ypokq91T0ESG7gPPG8-36" value="&lt;span style=&quot;font-size: 30px&quot;&gt;Activate leader card&lt;/span&gt;" style="text;html=1;strokeColor=none;fillColor=none;align=center;verticalAlign=middle;whiteSpace=wrap;rounded=0;fontStyle=1" parent="1" vertex="1">
          <mxGeometry x="85" y="870" width="355" height="110" as="geometry" />
        </mxCell>
        <mxCell id="y8Ypokq91T0ESG7gPPG8-37" value="&lt;h1&gt;The player chooses to activate one leaderCard&lt;/h1&gt;&lt;p&gt;The method isEligible (of a card) checks if the player passed as parameter satisfy all the requirements to operate the chosen action (buy a developmentCard or, in this case, activate a leaderCard)&lt;br&gt;&lt;/p&gt;" style="text;html=1;strokeColor=none;fillColor=none;spacing=5;spacingTop=-20;whiteSpace=wrap;overflow=hidden;rounded=0;" parent="1" vertex="1">
          <mxGeometry x="1410" y="1043" width="470" height="570" as="geometry" />
        </mxCell>
        <mxCell id="y8Ypokq91T0ESG7gPPG8-39" value="&lt;span style=&quot;font-size: 30px&quot;&gt;Take resources from market&lt;/span&gt;" style="text;html=1;strokeColor=none;fillColor=none;align=center;verticalAlign=middle;whiteSpace=wrap;rounded=0;fontStyle=1" parent="1" vertex="1">
          <mxGeometry x="40" y="1850" width="490" height="110" as="geometry" />
        </mxCell>
        <mxCell id="CbpCGGBYd-PtxAxwNIze-23" value="opt" style="shape=umlFrame;whiteSpace=wrap;html=1;" parent="1" vertex="1">
          <mxGeometry x="1045" y="300" width="235" height="80" as="geometry" />
        </mxCell>
        <mxCell id="y8Ypokq91T0ESG7gPPG8-42" value="&lt;meta charset=&quot;utf-8&quot;&gt;&lt;span style=&quot;color: rgb(0, 0, 0); font-family: helvetica; font-size: 11px; font-style: normal; font-weight: 400; letter-spacing: normal; text-align: center; text-indent: 0px; text-transform: none; word-spacing: 0px; background-color: rgb(255, 255, 255); display: inline; float: none;&quot;&gt;new LoginPlayer(userId, gameId)&lt;/span&gt;" style="edgeStyle=orthogonalEdgeStyle;html=1;align=left;spacingLeft=2;endArrow=block;rounded=0;entryX=1.223;entryY=0.188;entryDx=0;entryDy=0;entryPerimeter=0;" parent="1" edge="1">
          <mxGeometry relative="1" as="geometry">
            <mxPoint x="175" y="249.9999999999999" as="sourcePoint" />
            <Array as="points">
              <mxPoint x="190" y="250" />
              <mxPoint x="190" y="270" />
            </Array>
            <mxPoint x="177.23000000000002" y="270.2399999999999" as="targetPoint" />
          </mxGeometry>
        </mxCell>
        <mxCell id="y8Ypokq91T0ESG7gPPG8-7" value="&lt;span style=&quot;color: rgb(0 , 0 , 0) ; font-family: &amp;#34;helvetica&amp;#34; ; font-size: 11px ; font-style: normal ; font-weight: 400 ; letter-spacing: normal ; text-align: center ; text-indent: 0px ; text-transform: none ; word-spacing: 0px ; background-color: rgb(255 , 255 , 255) ; display: inline ; float: none&quot;&gt;new ActivateLeaderCard()&lt;/span&gt;" style="edgeStyle=orthogonalEdgeStyle;html=1;align=left;spacingLeft=2;endArrow=block;rounded=0;entryX=1.223;entryY=0.188;entryDx=0;entryDy=0;entryPerimeter=0;" parent="1" edge="1">
          <mxGeometry relative="1" as="geometry">
            <mxPoint x="175" y="1100" as="sourcePoint" />
            <Array as="points">
              <mxPoint x="190" y="1100" />
              <mxPoint x="190" y="1120" />
            </Array>
            <mxPoint x="177.23000000000002" y="1120.24" as="targetPoint" />
          </mxGeometry>
        </mxCell>
        <mxCell id="y8Ypokq91T0ESG7gPPG8-43" value="sendCommand(activateLeaderCard)" style="verticalAlign=bottom;endArrow=block;shadow=0;strokeWidth=1;exitX=0.93;exitY=0.142;exitDx=0;exitDy=0;exitPerimeter=0;" parent="1" source="UPu-GSjByRsGBZdqt5K7-34" target="UPu-GSjByRsGBZdqt5K7-38" edge="1">
          <mxGeometry relative="1" as="geometry">
            <mxPoint x="374.9999999999998" y="1279" as="sourcePoint" />
            <mxPoint x="654.9999999999998" y="1279" as="targetPoint" />
          </mxGeometry>
        </mxCell>
        <mxCell id="y8Ypokq91T0ESG7gPPG8-47" value="notifyObservers()" style="edgeStyle=orthogonalEdgeStyle;html=1;align=left;spacingLeft=2;endArrow=block;rounded=0;entryX=1;entryY=0;strokeWidth=1;" parent="1" edge="1">
          <mxGeometry relative="1" as="geometry">
            <mxPoint x="665" y="1163" as="sourcePoint" />
            <Array as="points">
              <mxPoint x="695" y="1163" />
            </Array>
            <mxPoint x="665" y="1183" as="targetPoint" />
          </mxGeometry>
        </mxCell>
        <mxCell id="y8Ypokq91T0ESG7gPPG8-49" value="update(virtView, activateLeaderCard)" style="edgeStyle=orthogonalEdgeStyle;html=1;align=left;spacingLeft=2;endArrow=block;rounded=0;entryX=1;entryY=0;strokeWidth=1;" parent="1" edge="1">
          <mxGeometry x="0.0462" y="-160" relative="1" as="geometry">
            <mxPoint x="860" y="1191" as="sourcePoint" />
            <Array as="points">
              <mxPoint x="860" y="1188" />
              <mxPoint x="830" y="1188" />
              <mxPoint x="830" y="1211" />
            </Array>
            <mxPoint x="860" y="1211" as="targetPoint" />
            <mxPoint as="offset" />
          </mxGeometry>
        </mxCell>
        <mxCell id="y8Ypokq91T0ESG7gPPG8-52" value="" style="html=1;verticalAlign=bottom;endArrow=block;strokeWidth=1;exitX=1.191;exitY=0.222;exitDx=0;exitDy=0;exitPerimeter=0;dashed=1;dashPattern=1 2;" parent="1" edge="1">
          <mxGeometry width="80" relative="1" as="geometry">
            <mxPoint x="666.9100000000001" y="1189.2199999999998" as="sourcePoint" />
            <mxPoint x="830" y="1189" as="targetPoint" />
          </mxGeometry>
        </mxCell>
        <mxCell id="y8Ypokq91T0ESG7gPPG8-53" value="" style="verticalAlign=bottom;endArrow=none;endSize=8;shadow=0;strokeWidth=2;endFill=0;dashed=1;" parent="1" edge="1">
          <mxGeometry relative="1" as="geometry">
            <mxPoint x="175" y="1450" as="targetPoint" />
            <mxPoint x="1255" y="1450" as="sourcePoint" />
            <Array as="points">
              <mxPoint x="1220" y="1450" />
            </Array>
          </mxGeometry>
        </mxCell>
        <mxCell id="y8Ypokq91T0ESG7gPPG8-9" value="&lt;font face=&quot;helvetica&quot;&gt;alt&lt;br&gt;&lt;/font&gt;" style="shape=umlFrame;whiteSpace=wrap;html=1;" parent="1" vertex="1">
          <mxGeometry x="160" y="390" width="1120" height="300" as="geometry" />
        </mxCell>
        <mxCell id="y8Ypokq91T0ESG7gPPG8-56" value="getPlayer(userId)" style="verticalAlign=bottom;endArrow=block;shadow=0;strokeWidth=1;exitX=0.929;exitY=0.101;exitDx=0;exitDy=0;exitPerimeter=0;" parent="1" edge="1">
          <mxGeometry relative="1" as="geometry">
            <mxPoint x="868.2900000000002" y="2133.52" as="sourcePoint" />
            <mxPoint x="1054" y="2133.52" as="targetPoint" />
          </mxGeometry>
        </mxCell>
        <mxCell id="y8Ypokq91T0ESG7gPPG8-57" value="player" style="verticalAlign=bottom;endArrow=open;dashed=1;endSize=8;shadow=0;strokeWidth=1;exitX=0.057;exitY=0.139;exitDx=0;exitDy=0;exitPerimeter=0;" parent="1" edge="1">
          <mxGeometry relative="1" as="geometry">
            <mxPoint x="870" y="2150.28" as="targetPoint" />
            <mxPoint x="1055.5699999999997" y="2150.28" as="sourcePoint" />
          </mxGeometry>
        </mxCell>
        <mxCell id="y8Ypokq91T0ESG7gPPG8-67" value="" style="html=1;verticalAlign=bottom;endArrow=block;strokeWidth=1;dashed=1;dashPattern=1 2;entryX=1.129;entryY=0.429;entryDx=0;entryDy=0;entryPerimeter=0;" parent="1" edge="1">
          <mxGeometry width="80" relative="1" as="geometry">
            <mxPoint x="1055" y="2275.79" as="sourcePoint" />
            <mxPoint x="666.29" y="2275.79" as="targetPoint" />
          </mxGeometry>
        </mxCell>
        <mxCell id="y8Ypokq91T0ESG7gPPG8-70" value="&lt;span style=&quot;color: rgb(0 , 0 , 0) ; font-family: &amp;#34;helvetica&amp;#34; ; font-size: 11px ; font-style: normal ; font-weight: 400 ; letter-spacing: normal ; text-align: center ; text-indent: 0px ; text-transform: none ; word-spacing: 0px ; background-color: rgb(255 , 255 , 255) ; display: inline ; float: none&quot;&gt;new PickFromMarket(rc, index)&lt;/span&gt;" style="edgeStyle=orthogonalEdgeStyle;html=1;align=left;spacingLeft=2;endArrow=block;rounded=0;entryX=1.223;entryY=0.188;entryDx=0;entryDy=0;entryPerimeter=0;" parent="1" edge="1">
          <mxGeometry relative="1" as="geometry">
            <mxPoint x="175.01999999999998" y="2043" as="sourcePoint" />
            <Array as="points">
              <mxPoint x="190.01999999999998" y="2043" />
              <mxPoint x="190.01999999999998" y="2063" />
            </Array>
            <mxPoint x="177.25" y="2063.24" as="targetPoint" />
          </mxGeometry>
        </mxCell>
        <mxCell id="y8Ypokq91T0ESG7gPPG8-74" value="" style="html=1;verticalAlign=bottom;endArrow=block;strokeWidth=1;dashed=1;dashPattern=1 2;" parent="1" source="UPu-GSjByRsGBZdqt5K7-233" edge="1">
          <mxGeometry width="80" relative="1" as="geometry">
            <mxPoint x="671.9100000000001" y="2106.22" as="sourcePoint" />
            <mxPoint x="835" y="2106" as="targetPoint" />
          </mxGeometry>
        </mxCell>
        <mxCell id="y8Ypokq91T0ESG7gPPG8-77" value="sendCommand(missingDataForAction)" style="verticalAlign=bottom;endArrow=block;shadow=0;strokeWidth=1;" parent="1" edge="1">
          <mxGeometry relative="1" as="geometry">
            <mxPoint x="175" y="2358" as="sourcePoint" />
            <mxPoint x="365" y="2358" as="targetPoint" />
          </mxGeometry>
        </mxCell>
        <mxCell id="y8Ypokq91T0ESG7gPPG8-78" value="sendCommand(missingDataForAction)" style="verticalAlign=bottom;endArrow=block;shadow=0;strokeWidth=1;exitX=1.026;exitY=0.629;exitDx=0;exitDy=0;exitPerimeter=0;" parent="1" source="UPu-GSjByRsGBZdqt5K7-230" target="UPu-GSjByRsGBZdqt5K7-233" edge="1">
          <mxGeometry relative="1" as="geometry">
            <mxPoint x="185" y="2367.9999999999995" as="sourcePoint" />
            <mxPoint x="374.9999999999998" y="2367.9999999999995" as="targetPoint" />
          </mxGeometry>
        </mxCell>
        <mxCell id="ketZLBcVdItftJQosjfu-1" value="&lt;h1&gt;General&lt;/h1&gt;&lt;p&gt;Return messages OK and KO are consequence of a notifyObservers by the model and a related update by the virtual view. Here are simply represented as a feedback to let the client know if the operation was successful or not.&amp;nbsp;&lt;br&gt;They will be more detailed in the future.&lt;/p&gt;&lt;p&gt;The cloud represents the passage of information on the web with the support of a socket&lt;/p&gt;&lt;p&gt;Different colors represents different component of the MVC pattern: green is the actual view on the client, blue is the virtual view, red is the controller and yellow represents the model (the white ones are part of the server and we are not sure how to classify them)&lt;/p&gt;&lt;p&gt;The method sendCommand passes a Message as parameter which contains all the necessary data for the start of the action in itself as attributes&lt;/p&gt;" style="text;html=1;strokeColor=none;fillColor=none;spacing=5;spacingTop=-20;whiteSpace=wrap;overflow=hidden;rounded=0;" vertex="1" parent="1">
          <mxGeometry x="130" y="-290" width="580" height="310" as="geometry" />
        </mxCell>
        <mxCell id="ketZLBcVdItftJQosjfu-2" value="&lt;h1&gt;The player chooses to take resource from a certain line of the market&lt;/h1&gt;&lt;div&gt;The selected action for the turn is associated to the relative player with the method setStrategy&lt;/div&gt;&lt;div&gt;&lt;br&gt;&lt;/div&gt;&lt;div&gt;All the proper operations of extracting the marbles and the relative resources from the market are here hidden into the play method of the TakeFromMarket class&lt;/div&gt;&lt;div&gt;&lt;br&gt;&lt;/div&gt;&lt;div&gt;The update of unfinishedAction concerns the next choice the player has to make, e.g. which resource associate to each white marble and then where to put each resoure obtained.&lt;/div&gt;" style="text;html=1;strokeColor=none;fillColor=none;spacing=5;spacingTop=-20;whiteSpace=wrap;overflow=hidden;rounded=0;" vertex="1" parent="1">
          <mxGeometry x="1380" y="2000" width="470" height="570" as="geometry" />
        </mxCell>
      </root>
    </mxGraphModel>
  </diagram>
</mxfile>
